<?xml version="1.0" encoding="UTF-8" standalone="no"?>
<!-- Created with Inkscape (http://www.inkscape.org/) -->
<svg
   xmlns:dc="http://purl.org/dc/elements/1.1/"
   xmlns:cc="http://web.resource.org/cc/"
   xmlns:rdf="http://www.w3.org/1999/02/22-rdf-syntax-ns#"
   xmlns:svg="http://www.w3.org/2000/svg"
   xmlns="http://www.w3.org/2000/svg"
   xmlns:xlink="http://www.w3.org/1999/xlink"
   xmlns:sodipodi="http://inkscape.sourceforge.net/DTD/sodipodi-0.dtd"
   xmlns:inkscape="http://www.inkscape.org/namespaces/inkscape"
   width="210mm"
   height="297mm"
   id="svg2"
   sodipodi:version="0.32"
   inkscape:version="0.43"
   sodipodi:docbase="/home/kerphi/public_html/pfc-1.x/misc"
   sodipodi:docname="tabs.svg">
  <defs
     id="defs4">
    <linearGradient
       id="linearGradient4008">
      <stop
         style="stop-color:#fdfdf2;stop-opacity:1;"
         offset="0"
         id="stop4010" />
      <stop
         style="stop-color:#ddeb0d;stop-opacity:1;"
         offset="1"
         id="stop4012" />
    </linearGradient>
    <linearGradient
       id="linearGradient2213">
      <stop
         style="stop-color:#18ff7d;stop-opacity:1;"
         offset="0"
         id="stop2215" />
      <stop
         style="stop-color:#18ff7d;stop-opacity:0;"
         offset="1"
         id="stop2217" />
    </linearGradient>
    <linearGradient
       id="linearGradient2207">
      <stop
         id="stop2209"
         offset="0"
         style="stop-color:#f2fdf2;stop-opacity:1;" />
      <stop
         id="stop2211"
         offset="1"
         style="stop-color:#12d20b;stop-opacity:1;" />
    </linearGradient>
    <linearGradient
       inkscape:collect="always"
       xlink:href="#linearGradient4008"
       id="linearGradient4006"
       gradientUnits="userSpaceOnUse"
       gradientTransform="matrix(0.481697,0.481697,-0.481697,0.481697,108.1085,-205.5369)"
       x1="218.34671"
       y1="390.89087"
       x2="487.51208"
       y2="390.89087" />
    <linearGradient
       inkscape:collect="always"
       xlink:href="#linearGradient4008"
       id="linearGradient4020"
       gradientUnits="userSpaceOnUse"
       gradientTransform="matrix(0.724163,0.724163,-0.724163,0.724163,213.6761,-415.6835)"
       x1="218.34671"
       y1="390.89087"
       x2="487.51208"
       y2="390.89087" />
    <linearGradient
       inkscape:collect="always"
       xlink:href="#linearGradient2207"
       id="linearGradient4048"
       gradientUnits="userSpaceOnUse"
       gradientTransform="matrix(0.433136,0.433136,-0.433136,0.433136,258.4198,110.8835)"
       x1="218.34671"
       y1="390.89087"
       x2="487.51208"
       y2="390.89087" />
    <linearGradient
       inkscape:collect="always"
       xlink:href="#linearGradient2207"
       id="linearGradient4050"
       gradientUnits="userSpaceOnUse"
       gradientTransform="matrix(0.707107,0.707107,-0.707107,0.707107,375.535,-124.8455)"
       x1="218.34671"
       y1="390.89087"
       x2="487.51208"
       y2="390.89087" />
    <linearGradient
       inkscape:collect="always"
       xlink:href="#linearGradient2207"
       id="linearGradient4058"
       gradientUnits="userSpaceOnUse"
       gradientTransform="matrix(0.433136,0.433136,-0.433136,0.433136,256.8342,363.5876)"
       x1="218.34671"
       y1="390.89087"
       x2="487.51208"
       y2="390.89087" />
    <linearGradient
       inkscape:collect="always"
       xlink:href="#linearGradient2207"
       id="linearGradient2208"
       gradientUnits="userSpaceOnUse"
       gradientTransform="matrix(0.707107,0.707107,-0.707107,0.707107,375.535,-124.8455)"
       x1="218.34671"
       y1="390.89087"
       x2="487.51208"
       y2="390.89087" />
    <linearGradient
       inkscape:collect="always"
       xlink:href="#linearGradient2207"
       id="linearGradient2211"
       gradientUnits="userSpaceOnUse"
       gradientTransform="matrix(0.433136,0.433136,-0.433136,0.433136,258.4198,110.8835)"
       x1="218.34671"
       y1="390.89087"
       x2="487.51208"
       y2="390.89087" />
    <linearGradient
       inkscape:collect="always"
       xlink:href="#linearGradient2207"
       id="linearGradient3962"
       gradientUnits="userSpaceOnUse"
       gradientTransform="matrix(0.707107,0.707107,-0.707107,0.707107,373.9494,127.8586)"
       x1="218.34671"
       y1="390.89087"
       x2="487.51208"
       y2="390.89087" />
    <linearGradient
       inkscape:collect="always"
       xlink:href="#linearGradient2207"
       id="linearGradient1351"
       gradientUnits="userSpaceOnUse"
       gradientTransform="matrix(0.707107,0.707107,-0.707107,0.707107,759.9246,165.0014)"
       x1="218.34671"
       y1="390.89087"
       x2="487.51208"
       y2="390.89087" />
    <linearGradient
       inkscape:collect="always"
       xlink:href="#linearGradient2207"
       id="linearGradient2229"
       gradientUnits="userSpaceOnUse"
       gradientTransform="matrix(0.707107,0.707107,-0.707107,0.707107,776.8066,-126.4271)"
       x1="218.34671"
       y1="390.89087"
       x2="487.51208"
       y2="390.89087" />
    <linearGradient
       inkscape:collect="always"
       xlink:href="#linearGradient2207"
       id="linearGradient2232"
       gradientUnits="userSpaceOnUse"
       gradientTransform="matrix(0.433136,0.433136,-0.433136,0.433136,659.6914,109.3019)"
       x1="218.34671"
       y1="390.89087"
       x2="487.51208"
       y2="390.89087" />
  </defs>
  <sodipodi:namedview
     id="base"
     pagecolor="#ffffff"
     bordercolor="#666666"
     borderopacity="1.0"
     inkscape:pageopacity="0.0"
     inkscape:pageshadow="2"
     inkscape:zoom="0.35"
     inkscape:cx="375"
     inkscape:cy="625.49513"
     inkscape:document-units="px"
     inkscape:current-layer="layer1"
     inkscape:window-width="1050"
     inkscape:window-height="801"
     inkscape:window-x="0"
     inkscape:window-y="0" />
  <metadata
     id="metadata7">
    <rdf:RDF>
      <cc:Work
         rdf:about="">
        <dc:format>image/svg+xml</dc:format>
        <dc:type
           rdf:resource="http://purl.org/dc/dcmitype/StillImage" />
      </cc:Work>
    </rdf:RDF>
  </metadata>
  <g
     inkscape:label="Calque 1"
     inkscape:groupmode="layer"
     id="layer1">
    <path
       style="opacity:1;fill:url(#linearGradient4006);fill-opacity:1;fill-rule:nonzero;stroke:#d4d02a;stroke-width:7.61000013;stroke-linejoin:miter;stroke-miterlimit:2.5;stroke-dasharray:none;stroke-opacity:1"
       d="M 80.238731,95.193243 C 25.575841,95.886473 -18.346859,118.29774 -18.346859,145.79526 C -18.346869,172.13973 21.973621,193.783 73.426501,196.16312 C 74.804261,199.3204 76.292151,202.58626 77.897031,205.93439 C 93.897361,239.31458 150.25205,244.39849 123.30474,235.80172 C 111.43694,232.01564 101.72459,214.49447 94.586961,196.05667 C 144.93965,193.14884 184.06122,171.74698 184.06121,145.79526 C 184.06121,117.86127 138.72517,95.193233 82.857171,95.193243 C 81.984231,95.193243 81.106391,95.182243 80.238731,95.193243 z "
       id="path4004"
       inkscape:export-filename="/home/kerphi/public_html/pfc-1.0/trunk/themes/default/images/ch.png"
       inkscape:export-xdpi="5.3417435"
       inkscape:export-ydpi="5.3417435" />
    <path
       style="opacity:1;fill:url(#linearGradient4020);fill-opacity:1;fill-rule:nonzero;stroke:#d4d02a;stroke-width:7.61000013;stroke-linejoin:miter;stroke-miterlimit:2.5;stroke-dasharray:none;stroke-opacity:1"
       d="M 171.77782,36.421532 C 89.599923,37.463705 23.56838,71.155867 23.56838,112.49448 C 23.568365,152.09965 84.184497,184.63723 161.5366,188.21541 C 163.60787,192.96193 165.8447,197.87168 168.25741,202.90512 C 192.31163,253.0875 277.03289,260.73043 236.52144,247.80641 C 218.67988,242.11458 204.07876,215.77399 193.34835,188.05537 C 269.04645,183.68386 327.86019,151.50921 327.86018,112.49448 C 327.86018,70.499696 259.70386,36.421517 175.71427,36.421532 C 174.40193,36.421532 173.08222,36.404995 171.77782,36.421532 z "
       id="path4018"
       inkscape:export-filename="/home/kerphi/public_html/pfc-1.0/trunk/themes/default/images/ch.png"
       inkscape:export-xdpi="5.3417435"
       inkscape:export-ydpi="5.3417435" />
    <g
       id="g3964"
       inkscape:export-filename="/home/kerphi/public_html/pfc-1.x/themes/default/images/ch.png"
       inkscape:export-xdpi="5.1439257"
       inkscape:export-ydpi="5.1439257">
      <path
         inkscape:export-ydpi="5.1439257"
         inkscape:export-xdpi="5.1439257"
         inkscape:export-filename="/home/kerphi/public_html/pfc-1.0/trunk/themes/default/images/ch.png"
         id="path4014"
         d="M 233.35972,381.29665 C 184.20745,381.91999 144.71265,402.07196 144.71265,426.79743 C 144.71264,450.48607 180.96838,469.94746 227.23423,472.08764 C 228.4731,474.92662 229.81099,477.86326 231.25409,480.87385 C 245.64141,510.88894 296.31491,515.46035 272.08418,507.73022 C 261.41279,504.32582 252.67956,488.57099 246.26149,471.99192 C 291.53805,469.37723 326.71574,450.13292 326.71574,426.79743 C 326.71574,401.67949 285.95006,381.29665 235.71418,381.29665 C 234.92925,381.29665 234.1399,381.28676 233.35972,381.29665 z "
         style="fill:url(#linearGradient2211);fill-opacity:1;fill-rule:nonzero;stroke:#2b752b;stroke-width:7.60999441;stroke-linejoin:miter;stroke-miterlimit:2.5;stroke-dasharray:none;stroke-opacity:1" />
      <path
         inkscape:export-ydpi="5.3160944"
         inkscape:export-xdpi="5.3160944"
         inkscape:export-filename="/home/kerphi/public_html/pfc-1.0/trunk/themes/default/images/pv.png"
         id="path1307"
         d="M 334.62371,316.61129 C 254.38131,317.62891 189.90496,350.52754 189.90496,390.89254 C 189.90495,429.5649 249.09343,461.33615 324.6237,464.83005 C 326.64618,469.46477 328.83032,474.2589 331.18621,479.17379 C 354.6739,528.17424 437.39977,535.63717 397.84245,523.01754 C 380.42111,517.45976 366.16388,491.73956 355.6862,464.67379 C 429.60142,460.40523 487.02996,428.98837 487.02995,390.89254 C 487.02995,349.88683 420.47888,316.61128 338.46745,316.61129 C 337.18602,316.61129 335.89739,316.59514 334.62371,316.61129 z "
         style="fill:url(#linearGradient2208);fill-opacity:1;fill-rule:nonzero;stroke:#2b752b;stroke-width:7.61000013;stroke-linejoin:miter;stroke-miterlimit:2.5;stroke-dasharray:none;stroke-opacity:1" />
      <path
         inkscape:export-ydpi="5.3160944"
         inkscape:export-xdpi="5.3160944"
         inkscape:export-filename="/home/kerphi/public_html/pfc-1.0/trunk/themes/default/images/pv.png"
         d="M 222.13103,356.76009 C 226.5614,344.93948 234.9963,344.90385 246.1556,345.49446 C 260.46268,352.32521 273.30555,361.49313 288.52203,365.69273 C 301.99734,345.13599 296.42288,345.172 328.38544,366.24731 C 342.70041,379.22393 314.42805,376.10051 329.43683,346.84142 C 341.22438,335.00599 399.62845,382.45846 353.35374,352.7192 C 377.18717,347.32201 367.1097,341.64616 399.88104,362.86664 C 372.63755,347.36263 389.5572,359.66787 414.13048,353.31012 C 417.5206,349.49979 422.11539,349.19974 426.52566,347.72106 L 447.88424,364.23736 C 443.98255,365.37998 439.39565,364.4674 436.39214,368.50038 C 411.9851,376.24503 396.6907,369.20965 375.08855,352.26777 C 380.3039,355.28903 404.99065,364.87356 373.81639,370.06021 C 319.97501,337.48996 351.37995,350.69102 352.03579,360.77361 C 338.29394,387.6147 323.48426,375.68722 303.75768,355.15129 C 319.25337,364.54262 327.55893,363.99163 309.79858,382.14908 C 293.96867,379.27055 280.86554,370.53515 266.77134,362.40885 C 257.16306,361.01185 249.73169,359.59791 246.4404,370.12428 L 222.13103,356.76009 z "
         id="path4028"
         style="fill:#40b340;fill-opacity:1;fill-rule:nonzero;stroke:none;stroke-width:1px;stroke-linecap:butt;stroke-linejoin:miter;stroke-opacity:1" />
      <path
         inkscape:export-ydpi="5.3160944"
         inkscape:export-xdpi="5.3160944"
         inkscape:export-filename="/home/kerphi/public_html/pfc-1.0/trunk/themes/default/images/pv.png"
         d="M 250.70246,405.33152 C 260.03661,381.632 255.4463,380.75175 285.79965,399.7503 C 317.36955,436.03316 245.24286,381.99485 303.73835,418.63665 C 309.83159,422.45347 291.6121,410.90768 285.54898,407.04319 C 297.01672,411.92392 302.7969,406.4331 310.96312,398.97433 C 330.92401,406.93419 370.23779,442.48393 335.10646,417.35983 C 349.1244,415.03512 352.96936,399.74415 358.54416,388.32499 C 370.36282,389.84924 429.1985,435.43773 382.46779,405.14176 C 395.6644,409.47532 401.97691,403.15192 409.73277,393.56146 C 464.32722,427.89325 424.34839,400.8094 424.06623,400.60321 L 444.9952,417.41385 C 430.4469,409.77026 383.12969,382.21846 432.08478,409.50041 C 424.06327,418.03048 416.50053,425.53995 403.10894,422.46821 C 382.66913,410.12971 343.54028,380.76753 381.20434,403.35213 C 374.6244,414.88215 370.36649,430.097 356.2432,434.10622 C 344.82058,427.94871 282.50221,385.70885 333.34702,414.473 C 324.86454,421.83989 318.06515,428.23112 306.00456,424.44525 C 278.1403,407.51316 289.41655,425.54117 260.70304,388.90227 C 289.09363,406.41296 280.73139,395.57981 275.01183,418.69571 L 250.70246,405.33152 z "
         id="path4030"
         style="fill:#40b340;fill-opacity:1;fill-rule:nonzero;stroke:none;stroke-width:1px;stroke-linecap:butt;stroke-linejoin:miter;stroke-opacity:1" />
    </g>
    <path
       style="fill:url(#linearGradient3962);fill-opacity:1;fill-rule:nonzero;stroke:#2b752b;stroke-width:7.61000013;stroke-linejoin:miter;stroke-miterlimit:2.5;stroke-dasharray:none;stroke-opacity:1"
       d="M 333.03813,569.31539 C 252.79573,570.33301 188.31938,603.23164 188.31938,643.59664 C 188.31937,682.269 247.50785,714.04025 323.03812,717.53415 C 325.0606,722.16887 327.24474,726.963 329.60063,731.87789 C 353.08832,780.87834 435.81419,788.34127 396.25687,775.72164 C 378.83553,770.16386 364.5783,744.44366 354.10062,717.37789 C 428.01584,713.10933 485.44438,681.69247 485.44437,643.59664 C 485.44437,602.59093 418.8933,569.31538 336.88187,569.31539 C 335.60044,569.31539 334.31181,569.29924 333.03813,569.31539 z "
       id="path4042"
       inkscape:export-filename="/home/kerphi/public_html/pfc-1.x/themes/default/images/pv.png"
       inkscape:export-xdpi="5.3160944"
       inkscape:export-ydpi="5.3160944" />
    <path
       style="fill:#40b340;fill-opacity:1;fill-rule:nonzero;stroke:none;stroke-width:1px;stroke-linecap:butt;stroke-linejoin:miter;stroke-opacity:1"
       id="path4044"
       d="M 220.54545,609.46419 C 224.97582,597.64358 233.41072,597.60795 244.57002,598.19856 C 258.8771,605.02931 271.71997,614.19723 286.93645,618.39683 C 300.41176,597.84009 294.8373,597.8761 326.79986,618.95141 C 341.11483,631.92803 312.84247,628.80461 327.85125,599.54552 C 339.6388,587.71009 398.04287,635.16256 351.76816,605.4233 C 375.60159,600.02611 365.52412,594.35026 398.29546,615.57074 C 371.05197,600.06673 387.97162,612.37197 412.5449,606.01422 C 415.93502,602.20389 420.52981,601.90384 424.94008,600.42516 L 446.29866,616.94146 C 442.39697,618.08408 437.81007,617.1715 434.80656,621.20448 C 410.39952,628.94913 395.10512,621.91375 373.50297,604.97187 C 378.71832,607.99313 403.40507,617.57766 372.23081,622.76431 C 318.38943,590.19406 349.79437,603.39512 350.45021,613.47771 C 336.70836,640.3188 321.89868,628.39132 302.1721,607.85539 C 317.66779,617.24672 325.97335,616.69573 308.213,634.85318 C 292.38309,631.97465 279.27996,623.23925 265.18576,615.11295 C 255.57748,613.71595 248.14611,612.30201 244.85482,622.82838 L 220.54545,609.46419 z "
       inkscape:export-filename="/home/kerphi/public_html/pfc-1.x/themes/default/images/pv.png"
       inkscape:export-xdpi="5.3160944"
       inkscape:export-ydpi="5.3160944" />
    <path
       style="fill:#40b340;fill-opacity:1;fill-rule:nonzero;stroke:none;stroke-width:1px;stroke-linecap:butt;stroke-linejoin:miter;stroke-opacity:1"
       id="path4046"
       d="M 249.11688,658.03562 C 258.45103,634.3361 253.86072,633.45585 284.21407,652.4544 C 315.78397,688.73726 243.65728,634.69895 302.15277,671.34075 C 308.24601,675.15757 290.02652,663.61178 283.9634,659.74729 C 295.43114,664.62802 301.21132,659.1372 309.37754,651.67843 C 329.33843,659.63829 368.65221,695.18803 333.52088,670.06393 C 347.53882,667.73922 351.38378,652.44825 356.95858,641.02909 C 368.77724,642.55334 427.61292,688.14183 380.88221,657.84586 C 394.07882,662.17942 400.39133,655.85602 408.14719,646.26556 C 462.74164,680.59735 422.76281,653.5135 422.48065,653.30731 L 443.40962,670.11795 C 428.86132,662.47436 381.54411,634.92256 430.4992,662.20451 C 422.47769,670.73458 414.91495,678.24405 401.52336,675.17231 C 381.08355,662.83381 341.9547,633.47163 379.61876,656.05623 C 373.03882,667.58625 368.78091,682.8011 354.65762,686.81032 C 343.235,680.65281 280.91663,638.41295 331.76144,667.1771 C 323.27896,674.54399 316.47957,680.93522 304.41898,677.14935 C 276.55472,660.21726 287.83097,678.24527 259.11746,641.60637 C 287.50805,659.11706 279.14581,648.28391 273.42625,671.39981 L 249.11688,658.03562 z "
       inkscape:export-filename="/home/kerphi/public_html/pfc-1.x/themes/default/images/pv.png"
       inkscape:export-xdpi="5.3160944"
       inkscape:export-ydpi="5.3160944" />
    <path
       style="fill:url(#linearGradient2232);fill-opacity:1;fill-rule:nonzero;stroke:#ffffff;stroke-width:7.60999441;stroke-linejoin:miter;stroke-miterlimit:2.5;stroke-dasharray:none;stroke-opacity:1"
       d="M 634.63132,379.71502 C 585.47905,380.33836 545.98425,400.49033 545.98425,425.2158 C 545.98424,448.90444 582.23998,468.36583 628.50583,470.50601 C 629.7447,473.34499 631.08259,476.28163 632.52569,479.29222 C 646.91301,509.30731 697.58651,513.87872 673.35578,506.14859 C 662.68439,502.74419 653.95116,486.98936 647.53309,470.41029 C 692.80965,467.7956 727.98734,448.55129 727.98734,425.2158 C 727.98734,400.09786 687.22166,379.71502 636.98578,379.71502 C 636.20085,379.71502 635.4115,379.70513 634.63132,379.71502 z "
       id="path1333"
       inkscape:export-filename="/home/kerphi/public_html/pfc-1.x/themes/default/images/ch-active.png"
       inkscape:export-xdpi="5.1439257"
       inkscape:export-ydpi="5.1439257" />
    <path
       style="fill:url(#linearGradient2229);fill-opacity:1;fill-rule:nonzero;stroke:#ffffff;stroke-width:7.61000013;stroke-linejoin:miter;stroke-miterlimit:2.5;stroke-dasharray:none;stroke-opacity:1"
       d="M 735.89531,315.02966 C 655.65291,316.04728 591.17656,348.94591 591.17656,389.31091 C 591.17655,427.98327 650.36503,459.75452 725.8953,463.24842 C 727.91778,467.88314 730.10192,472.67727 732.45781,477.59216 C 755.9455,526.59261 838.67137,534.05554 799.11405,521.43591 C 781.69271,515.87813 767.43548,490.15793 756.9578,463.09216 C 830.87302,458.8236 888.30156,427.40674 888.30155,389.31091 C 888.30155,348.3052 821.75048,315.02965 739.73905,315.02966 C 738.45762,315.02966 737.16899,315.01351 735.89531,315.02966 z "
       id="path1335"
       inkscape:export-filename="/home/kerphi/public_html/pfc-1.x/themes/default/images/ch-active.png"
       inkscape:export-xdpi="5.1439257"
       inkscape:export-ydpi="5.1439257" />
    <path
       style="fill:#ffffff;fill-opacity:1;fill-rule:nonzero;stroke:none;stroke-width:1px;stroke-linecap:butt;stroke-linejoin:miter;stroke-opacity:1"
       id="path1337"
       d="M 623.40263,355.17846 C 627.833,343.35785 636.2679,343.32222 647.4272,343.91283 C 661.73428,350.74358 674.57715,359.9115 689.79363,364.1111 C 703.26894,343.55436 697.69448,343.59037 729.65704,364.66568 C 743.97201,377.6423 715.69965,374.51888 730.70843,345.25979 C 742.49598,333.42436 800.90005,380.87683 754.62534,351.13757 C 778.45877,345.74038 768.3813,340.06453 801.15264,361.28501 C 773.90915,345.781 790.8288,358.08624 815.40208,351.72849 C 818.7922,347.91816 823.38699,347.61811 827.79726,346.13943 L 849.15584,362.65573 C 845.25415,363.79835 840.66725,362.88577 837.66374,366.91875 C 813.2567,374.6634 797.9623,367.62802 776.36015,350.68614 C 781.5755,353.7074 806.26225,363.29193 775.08799,368.47858 C 721.24661,335.90833 752.65155,349.10939 753.30739,359.19198 C 739.56554,386.03307 724.75586,374.10559 705.02928,353.56966 C 720.52497,362.96099 728.83053,362.41 711.07018,380.56745 C 695.24027,377.68892 682.13714,368.95352 668.04294,360.82722 C 658.43466,359.43022 651.00329,358.01628 647.712,368.54265 L 623.40263,355.17846 z "
       inkscape:export-filename="/home/kerphi/public_html/pfc-1.x/themes/default/images/ch-active.png"
       inkscape:export-xdpi="5.1439257"
       inkscape:export-ydpi="5.1439257" />
    <path
       style="fill:#ffffff;fill-opacity:1;fill-rule:nonzero;stroke:none;stroke-width:1px;stroke-linecap:butt;stroke-linejoin:miter;stroke-opacity:1"
       id="path1339"
       d="M 651.97406,403.74989 C 661.30821,380.05037 656.7179,379.17012 687.07125,398.16867 C 718.64115,434.45153 646.51446,380.41322 705.00995,417.05502 C 711.10319,420.87184 692.8837,409.32605 686.82058,405.46156 C 698.28832,410.34229 704.0685,404.85147 712.23472,397.3927 C 732.19561,405.35256 771.50939,440.9023 736.37806,415.7782 C 750.396,413.45349 754.24096,398.16252 759.81576,386.74336 C 771.63442,388.26761 830.4701,433.8561 783.73939,403.56013 C 796.936,407.89369 803.24851,401.57029 811.00437,391.97983 C 865.59882,426.31162 825.61999,399.22777 825.33783,399.02158 L 846.2668,415.83222 C 831.7185,408.18863 784.40129,380.63683 833.35638,407.91878 C 825.33487,416.44885 817.77213,423.95832 804.38054,420.88658 C 783.94073,408.54808 744.81188,379.1859 782.47594,401.7705 C 775.896,413.30052 771.63809,428.51537 757.5148,432.52459 C 746.09218,426.36708 683.77381,384.12722 734.61862,412.89137 C 726.13614,420.25826 719.33675,426.64949 707.27616,422.86362 C 679.4119,405.93153 690.68815,423.95954 661.97464,387.32064 C 690.36523,404.83133 682.00299,393.99818 676.28343,417.11408 L 651.97406,403.74989 z "
       inkscape:export-filename="/home/kerphi/public_html/pfc-1.x/themes/default/images/ch-active.png"
       inkscape:export-xdpi="5.1439257"
       inkscape:export-ydpi="5.1439257" />
    <path
       style="fill:url(#linearGradient1351);fill-opacity:1;fill-rule:nonzero;stroke:#ffffff;stroke-width:7.61000013;stroke-linejoin:miter;stroke-miterlimit:2.5;stroke-dasharray:none;stroke-opacity:1"
       d="M 719.01339,606.45822 C 638.771,607.47584 574.29464,640.37447 574.29464,680.73947 C 574.29463,719.41183 633.48311,751.18308 709.01338,754.67698 C 711.03586,759.3117 713.22,764.10583 715.57589,769.02072 C 739.06359,818.02117 821.78946,825.4841 782.23213,812.86447 C 764.8108,807.30669 750.55356,781.58649 740.07588,754.52072 C 813.9911,750.25216 871.41964,718.8353 871.41963,680.73947 C 871.41963,639.73376 804.86856,606.45821 722.85713,606.45822 C 721.5757,606.45822 720.28707,606.44207 719.01339,606.45822 z "
       id="path1345"
       inkscape:export-filename="/home/kerphi/public_html/pfc-1.x/themes/default/images/pv-active.png"
       inkscape:export-xdpi="5.3160944"
       inkscape:export-ydpi="5.3160944" />
    <path
       style="fill:#ffffff;fill-opacity:1;fill-rule:nonzero;stroke:none;stroke-width:1px;stroke-linecap:butt;stroke-linejoin:miter;stroke-opacity:1"
       id="path1347"
       d="M 606.52071,646.60702 C 610.95108,634.78641 619.38598,634.75078 630.54528,635.34139 C 644.85236,642.17214 657.69523,651.34006 672.91171,655.53966 C 686.38702,634.98292 680.81256,635.01893 712.77513,656.09424 C 727.09009,669.07086 698.81774,665.94744 713.82651,636.68835 C 725.61406,624.85292 784.01813,672.30539 737.74343,642.56613 C 761.57685,637.16894 751.49939,631.49309 784.27073,652.71357 C 757.02723,637.20956 773.94688,649.5148 798.52016,643.15705 C 801.91028,639.34672 806.50507,639.04667 810.91535,637.56799 L 832.27392,654.08429 C 828.37223,655.22691 823.78533,654.31433 820.78182,658.34731 C 796.37478,666.09196 781.08038,659.05658 759.47823,642.1147 C 764.69358,645.13596 789.38033,654.72049 758.20607,659.90714 C 704.36469,627.33689 735.76964,640.53795 736.42547,650.62054 C 722.68363,677.46163 707.87394,665.53415 688.14736,644.99822 C 703.64305,654.38955 711.94861,653.83856 694.18826,671.99601 C 678.35836,669.11748 665.25523,660.38208 651.16103,652.25578 C 641.55275,650.85878 634.12137,649.44484 630.83008,659.97121 L 606.52071,646.60702 z "
       inkscape:export-filename="/home/kerphi/public_html/pfc-1.x/themes/default/images/pv-active.png"
       inkscape:export-xdpi="5.3160944"
       inkscape:export-ydpi="5.3160944" />
    <path
       style="fill:#ffffff;fill-opacity:1;fill-rule:nonzero;stroke:none;stroke-width:1px;stroke-linecap:butt;stroke-linejoin:miter;stroke-opacity:1"
       id="path1349"
       d="M 635.09215,695.17845 C 644.42629,671.47893 639.83598,670.59868 670.18933,689.59723 C 701.75923,725.88009 629.63254,671.84178 688.12803,708.48358 C 694.22128,712.3004 676.00178,700.75461 669.93866,696.89012 C 681.4064,701.77085 687.18658,696.28003 695.3528,688.82126 C 715.31369,696.78112 754.62747,732.33086 719.49614,707.20676 C 733.51408,704.88205 737.35904,689.59108 742.93384,678.17192 C 754.7525,679.69617 813.58818,725.28466 766.85747,694.98869 C 780.05408,699.32225 786.36659,692.99885 794.12245,683.40839 C 848.7169,717.74018 808.73807,690.65633 808.45591,690.45014 L 829.38488,707.26078 C 814.83658,699.61719 767.51938,672.06539 816.47446,699.34734 C 808.45295,707.87741 800.89021,715.38688 787.49862,712.31514 C 767.05882,699.97664 727.92996,670.61446 765.59403,693.19906 C 759.01408,704.72908 754.75617,719.94393 740.63288,723.95315 C 729.21026,717.79564 666.89189,675.55578 717.7367,704.31993 C 709.25422,711.68682 702.45483,718.07805 690.39424,714.29218 C 662.52998,697.36009 673.80623,715.3881 645.09272,678.7492 C 673.48331,696.25989 665.12107,685.42674 659.40151,708.54264 L 635.09215,695.17845 z "
       inkscape:export-filename="/home/kerphi/public_html/pfc-1.x/themes/default/images/pv-active.png"
       inkscape:export-xdpi="5.3160944"
       inkscape:export-ydpi="5.3160944" />
  </g>
</svg>
